<?xml version="1.0" encoding="UTF-8"?>
<svg id="Capa_2" data-name="Capa 2" xmlns="http://www.w3.org/2000/svg" viewBox="0 0 1063 340.01">
  <defs>
    <style>
      .cls-1 {
        fill: #001d44;
      }

      .cls-1, .cls-2 {
        stroke-width: 0px;
      }

      .cls-2 {
        fill: #0062e3;
      }
    </style>
  </defs>
  <g id="Capa_1-2" data-name="Capa 1">
    <g>
      <path class="cls-1" d="M25.39,162.33l50.76,50.76h.01s-.03,0-.03,0l-25.37,25.37h.01s-.03.01-.03.01l-25.37,25.37h.02s-.03.01-.03.01L0,289.24l25.38,25.38h0s.02.02.02.02l25.37,25.37,25.37-25.37,25.4-25.4,25.37-25.37h.01s0-.01,0-.01h.01s25.37,25.38,25.37,25.38l.02.02,25.01,25.01.34.34h.01s0-50.74,0-50.74h-.02.02v-50.77h-.01.01v-50.77H25.39ZM152.31,187.71h0s-.02,0-.02,0h0ZM152.31,238.48h.01s-.03.01-.03.01h.01ZM126.92,213.09h.01s-.02,0-.02,0h0ZM101.53,187.71h0s-.02,0-.02,0h0ZM76.15,263.86h.02s-.03.01-.03.01h.02ZM50.75,289.26l.02-.02.02.02h-.03ZM101.52,238.49h.01s.01,0,.01,0h-.03Z"/>
      <path class="cls-2" d="M279.78,187.72c-.18.72-.36,1.43-.55,2.14-1.57,5.86-3.65,11.55-6.21,17.02-.98,2.11-2.04,4.18-3.16,6.22-4.33,7.85-9.69,15.18-16.02,21.82-.58.61-1.16,1.2-1.75,1.8l-.09.09c-.57.57-1.14,1.12-1.71,1.67-6.64,6.35-13.98,11.74-21.83,16.09-2.01,1.12-4.06,2.16-6.14,3.14-5.35,2.52-10.92,4.58-16.64,6.16-.86.24-1.73.46-2.6.68-7.03,1.74-14.28,2.76-21.66,3.03-1.24.05-2.48.07-3.72.07v46.63c.11,0,.22.01.33.01,1.57.05,3.15.07,4.73.07,6.89,0,13.67-.44,20.32-1.31,6.78-.88,13.42-2.19,19.9-3.91,1.84-.48,3.67-1,5.48-1.56,3.64-1.11,7.22-2.34,10.74-3.7,5.01-1.93,9.9-4.12,14.64-6.54,1.78-.9,3.54-1.85,5.29-2.82,2.98-1.66,5.9-3.42,8.76-5.27,3.9-2.52,7.69-5.21,11.34-8.07,3.24-2.52,6.37-5.17,9.4-7.93,3.28-2.99,6.43-6.12,9.45-9.38,2.26-2.44,4.44-4.95,6.54-7.53,2.69-3.3,5.25-6.7,7.66-10.21,1.73-2.5,3.38-5.05,4.95-7.65,4.77-7.86,8.87-16.17,12.22-24.85.07-.18.14-.36.21-.54.03-.09.07-.17.1-.26.08-.22.17-.44.25-.66,2.95-7.88,5.29-16.05,6.95-24.47h-57.17ZM279.23,213.09h.01s-.02,0-.02,0h0ZM253.85,238.48h.01s-.03.01-.03.01h.01ZM228.46,263.86h.02s-.03.01-.03.01h.02ZM203.06,289.26l.02-.02.02.02h-.03ZM253.83,289.26l.02-.02.02.02h-.03ZM279.22,263.87h.01s0-.01,0-.01h.01s-.03.01-.03.01ZM304.63,238.49h-.03.01s.01,0,.01,0Z"/>
      <path class="cls-2" d="M334.47,116.03c-.41-1.5-.84-2.98-1.29-4.46-.24-.81-.5-1.62-.76-2.42-.75-2.35-1.56-4.67-2.42-6.96-2.05-5.48-4.41-10.82-7.04-16-2.04-4.01-4.24-7.93-6.61-11.73-2.93-4.72-6.11-9.28-9.52-13.65-.72-.93-1.46-1.86-2.21-2.78-3.37-4.14-6.95-8.11-10.73-11.88-3.77-3.77-7.72-7.35-11.86-10.72-.92-.76-1.86-1.5-2.8-2.23-4.37-3.41-8.91-6.59-13.63-9.52-3.81-2.38-7.73-4.59-11.75-6.64-5.12-2.61-10.41-4.95-15.83-6.99-2.33-.88-4.69-1.71-7.08-2.47-.82-.27-1.64-.53-2.47-.77-1.51-.46-3.03-.9-4.56-1.32-6.77-1.84-13.72-3.24-20.82-4.16-5.07-.66-10.22-1.08-15.44-1.23-1.62-.05-3.25-.08-4.89-.08s-3.38.03-5.06.09c-3.15.1-6.27.29-9.37.57-5.42.49-10.77,1.27-16.02,2.3-8.54,1.68-16.83,4.06-24.82,7.07-.14.05-.28.1-.41.15-.05.02-.11.04-.16.06-.12.05-.23.09-.35.13-8.75,3.36-17.12,7.48-25.04,12.28-2.63,1.59-5.21,3.26-7.74,5.01-3.55,2.44-6.99,5.03-10.32,7.75-2.51,2.05-4.95,4.17-7.32,6.36-3.29,3.04-6.46,6.22-9.48,9.54-2.79,3.05-5.46,6.22-8,9.48-2.79,3.58-5.43,7.29-7.91,11.11-1.88,2.9-3.67,5.87-5.37,8.9-.99,1.77-1.94,3.56-2.86,5.37-2.44,4.8-4.65,9.74-6.59,14.81-1.33,3.47-2.54,6.99-3.63,10.57-.55,1.79-1.06,3.59-1.53,5.4-1.73,6.51-3.04,13.18-3.92,19.99-.86,6.63-1.3,13.38-1.3,20.23,0,1.63.03,3.26.08,4.88,0,.09,0,.18,0,.27h46.63c0-1.27.02-2.54.07-3.8.26-7.36,1.28-14.58,3-21.58.25-1.01.51-2.01.79-3.01,1.56-5.61,3.59-11.06,6.06-16.31.96-2.05,1.99-4.07,3.09-6.06,4.38-7.92,9.81-15.32,16.23-22.01.52-.55,1.05-1.09,1.59-1.62.03-.03.06-.06.09-.09.56-.56,1.14-1.12,1.71-1.67,6.69-6.39,14.09-11.8,22.01-16.16,2.01-1.11,4.05-2.14,6.13-3.11,5.37-2.51,10.95-4.56,16.69-6.12.85-.23,1.71-.46,2.57-.66,7.06-1.73,14.34-2.74,21.75-2.97,1.16-.04,2.33-.06,3.5-.06h.13c1.21,0,2.42.02,3.63.07,7.42.26,14.7,1.28,21.76,3.03.77.19,1.54.39,2.31.6,5.8,1.58,11.44,3.65,16.87,6.2,2.1.99,4.17,2.04,6.21,3.17,7.82,4.33,15.12,9.69,21.75,16.01.6.58,1.2,1.16,1.79,1.75.02.02.03.03.04.05.61.61,1.21,1.22,1.8,1.84,6.3,6.62,11.65,13.93,15.97,21.74,1.13,2.04,2.19,4.12,3.17,6.23,2.57,5.49,4.66,11.21,6.24,17.09.18.68.36,1.37.53,2.06h24.85s0,0,0,0h34.01c-.92-7.13-2.32-14.12-4.16-20.92ZM304.62,86.18h0s0,0,0,0h0ZM279.24,60.8h0,0s0,0,0,0h0ZM253.85,35.41h0,0s0,0,0,0ZM101.53,35.41h0s0,0,0,0h0ZM76.15,60.79h0s-.01,0-.01,0h0ZM50.77,86.18h0s0,0,0,0h0ZM50.76,136.95h0s0,0,0,0h-.01ZM76.14,111.57h0s0,0,0,0h-.01ZM101.53,86.18h0s0,0,0,0h0ZM126.92,60.8h0s0,0,0,0h0s0,0,0,0ZM152.3,35.41h0s0,0,0,0h0ZM203.07,35.41h0s0,0,0,0h0ZM228.45,60.8h0s0,0,0,0h-.01ZM253.84,86.18h0s0,0,0,0h0ZM279.23,111.57h0s0,0,0,0h0s0,0,0,0ZM330,111.57h0s0,0,0,0h0Z"/>
      <g>
        <path class="cls-2" d="M430.3,22.97v263.7h-60.94V22.97h60.94Z"/>
        <path class="cls-2" d="M535.43,87.82v198.84h-60.93V87.82h60.93Z"/>
        <path class="cls-2" d="M580.15,133.08c8.43-15.44,20.19-27.32,35.28-35.63,15.08-8.31,32.37-12.47,51.85-12.47,24.94,0,45.79,6.54,62.54,19.6,16.75,13.07,27.73,31.48,32.96,55.24h-64.86c-5.47-15.2-16.04-22.81-31.72-22.81-11.17,0-20.08,4.34-26.73,13.01-6.65,8.67-9.98,21.09-9.98,37.24s3.32,28.57,9.98,37.24c6.65,8.67,15.56,13.01,26.73,13.01,15.68,0,26.25-7.6,31.72-22.81h64.86c-5.23,23.29-16.27,41.58-33.14,54.88-16.87,13.31-37.66,19.95-62.36,19.95-19.48,0-36.77-4.15-51.85-12.47-15.09-8.31-26.85-20.19-35.28-35.63-8.44-15.44-12.65-33.5-12.65-54.16s4.21-38.72,12.65-54.17Z"/>
        <path class="cls-2" d="M916.72,286.67l-60.58-83.39v83.39h-60.94V22.97h60.94v145.75l60.22-80.89h75.19l-82.67,99.78,83.39,99.06h-75.55Z"/>
      </g>
      <path class="cls-1" d="M505.14,66.81c-10.69,0-19.42-3.15-26.19-9.44-6.77-6.29-10.16-14.08-10.16-23.34s3.39-17.4,10.16-23.7c6.77-6.29,15.5-9.44,26.19-9.44s19.06,3.15,25.84,9.44c6.77,6.3,10.16,14.2,10.16,23.7s-3.39,17.05-10.16,23.34c-6.77,6.3-15.39,9.44-25.84,9.44"/>
      <g>
        <path class="cls-1" d="M964.88,198.8h-17.95l-2.88,8.5h-12.26l17.4-48.1h13.57l17.4,48.1h-12.4l-2.88-8.5ZM961.87,189.75l-5.96-17.61-5.89,17.61h11.85Z"/>
        <path class="cls-1" d="M985.34,177.76c1.48-2.97,3.51-5.25,6.06-6.85,2.56-1.6,5.41-2.4,8.56-2.4,2.51,0,4.81.53,6.89,1.58,2.08,1.05,3.71,2.47,4.9,4.25v-17.75h11.72v50.7h-11.72v-5.48c-1.1,1.83-2.66,3.29-4.69,4.39-2.03,1.1-4.4,1.64-7.09,1.64-3.15,0-6.01-.81-8.56-2.43-2.56-1.62-4.58-3.93-6.06-6.92-1.49-2.99-2.23-6.45-2.23-10.38s.74-7.38,2.23-10.35ZM1009.32,181.26c-1.62-1.69-3.6-2.54-5.93-2.54s-4.31.83-5.93,2.5c-1.62,1.67-2.43,3.96-2.43,6.89s.81,5.24,2.43,6.95c1.62,1.71,3.6,2.57,5.93,2.57s4.31-.84,5.93-2.54c1.62-1.69,2.43-4,2.43-6.92s-.81-5.23-2.43-6.92Z"/>
        <path class="cls-1" d="M1038.61,206.13c-2.6-1.14-4.66-2.71-6.17-4.69-1.51-1.99-2.35-4.21-2.54-6.68h11.58c.14,1.33.75,2.4,1.85,3.22s2.44,1.23,4.04,1.23c1.46,0,2.59-.28,3.39-.86.8-.57,1.2-1.31,1.2-2.23,0-1.1-.57-1.91-1.71-2.43-1.14-.52-2.99-1.11-5.55-1.75-2.74-.64-5.02-1.31-6.85-2.02-1.83-.71-3.4-1.83-4.73-3.36-1.33-1.53-1.99-3.6-1.99-6.2,0-2.19.6-4.19,1.82-5.99,1.21-1.8,2.99-3.23,5.34-4.28,2.35-1.05,5.15-1.58,8.39-1.58,4.8,0,8.58,1.19,11.34,3.56,2.76,2.38,4.35,5.53,4.76,9.45h-10.83c-.18-1.32-.77-2.37-1.75-3.15-.98-.78-2.27-1.17-3.87-1.17-1.37,0-2.42.26-3.15.79-.73.53-1.1,1.24-1.1,2.16,0,1.1.58,1.92,1.75,2.47,1.16.55,2.98,1.1,5.45,1.64,2.83.73,5.14,1.45,6.92,2.16,1.78.71,3.35,1.85,4.69,3.43,1.35,1.58,2.04,3.69,2.09,6.34,0,2.24-.63,4.24-1.88,5.99-1.26,1.76-3.06,3.14-5.41,4.15-2.35,1-5.08,1.51-8.19,1.51-3.34,0-6.3-.57-8.91-1.71Z"/>
      </g>
    </g>
  </g>
</svg>