<?xml version="1.0" encoding="utf-8"?>
<!-- Generator: Adobe Illustrator 28.3.0, SVG Export Plug-In . SVG Version: 6.00 Build 0)  -->
<svg version="1.1" id="Capa_1" xmlns="http://www.w3.org/2000/svg" xmlns:xlink="http://www.w3.org/1999/xlink" x="0px" y="0px"
	 viewBox="0 0 512 512" style="enable-background:new 0 0 512 512;" xml:space="preserve">
<style type="text/css">
	.st0{fill:#001D44;}
	.st1{fill:#0062E3;}
</style>
<path class="st0" d="M54.5,245.3l71,71l0,0h0L90,351.8l0,0h0l-35.5,35.5l0,0h0L19,422.8l35.5,35.5v0l0,0L90,493.8l35.5-35.5
	l35.5-35.5l35.5-35.5l0,0h0l0,0l35.5,35.5l0,0l35,35l0.5,0.5l0,0v-71h0l0,0v-71h0l0,0v-71H54.5z M232,280.8L232,280.8L232,280.8
	L232,280.8z M232,351.8L232,351.8L232,351.8L232,351.8z M196.5,316.3L196.5,316.3L196.5,316.3L196.5,316.3L196.5,316.3z M161,280.8
	L161,280.8L161,280.8L161,280.8z M125.5,387.3L125.5,387.3L125.5,387.3L125.5,387.3z M90,422.8L90,422.8L90,422.8L90,422.8z
	 M161,351.8L161,351.8L161,351.8L161,351.8z"/>
<path class="st1" d="M410.3,280.8c-0.2,1-0.5,2-0.8,3c-2.2,8.2-5.1,16.2-8.7,23.8c-1.4,2.9-2.8,5.8-4.4,8.7
	c-6.1,11-13.6,21.2-22.4,30.5c-0.8,0.8-1.6,1.7-2.5,2.5l-0.1,0.1c-0.8,0.8-1.6,1.6-2.4,2.3c-9.3,8.9-19.5,16.4-30.5,22.5
	c-2.8,1.6-5.7,3-8.6,4.4c-7.5,3.5-15.3,6.4-23.3,8.6c-1.2,0.3-2.4,0.6-3.6,1c-9.8,2.4-20,3.9-30.3,4.2c-1.7,0.1-3.5,0.1-5.2,0.1
	v65.2c0.2,0,0.3,0,0.5,0c2.2,0.1,4.4,0.1,6.6,0.1c9.6,0,19.1-0.6,28.4-1.8c9.5-1.2,18.8-3.1,27.8-5.5c2.6-0.7,5.1-1.4,7.7-2.2
	c5.1-1.5,10.1-3.3,15-5.2c7-2.7,13.8-5.8,20.5-9.1c2.5-1.3,5-2.6,7.4-3.9c4.2-2.3,8.3-4.8,12.2-7.4c5.5-3.5,10.7-7.3,15.9-11.3
	c4.5-3.5,8.9-7.2,13.1-11.1c4.6-4.2,9-8.6,13.2-13.1c3.2-3.4,6.2-6.9,9.1-10.5c3.8-4.6,7.3-9.4,10.7-14.3c2.4-3.5,4.7-7.1,6.9-10.7
	c6.7-11,12.4-22.6,17.1-34.7c0.1-0.3,0.2-0.5,0.3-0.8c0-0.1,0.1-0.2,0.1-0.4c0.1-0.3,0.2-0.6,0.3-0.9c4.1-11,7.4-22.4,9.7-34.2
	H410.3z M409.5,316.3L409.5,316.3L409.5,316.3L409.5,316.3L409.5,316.3z M374,351.8L374,351.8L374,351.8L374,351.8z M338.5,387.3
	L338.5,387.3L338.5,387.3L338.5,387.3z M303,422.8L303,422.8L303,422.8L303,422.8z M374,422.8L374,422.8L374,422.8L374,422.8z
	 M409.5,387.3L409.5,387.3L409.5,387.3L409.5,387.3L409.5,387.3z M445.1,351.8L445.1,351.8L445.1,351.8L445.1,351.8z"/>
<path class="st1" d="M486.8,180.6c-0.6-2.1-1.2-4.2-1.8-6.2c-0.3-1.1-0.7-2.3-1.1-3.4c-1-3.3-2.2-6.5-3.4-9.7
	c-2.9-7.7-6.2-15.1-9.8-22.4c-2.8-5.6-5.9-11.1-9.2-16.4c-4.1-6.6-8.5-13-13.3-19.1c-1-1.3-2-2.6-3.1-3.9c-4.7-5.8-9.7-11.3-15-16.6
	c-5.3-5.3-10.8-10.3-16.6-15c-1.3-1.1-2.6-2.1-3.9-3.1c-6.1-4.8-12.5-9.2-19.1-13.3c-5.3-3.3-10.8-6.4-16.4-9.3
	c-7.2-3.7-14.6-6.9-22.1-9.8c-3.3-1.2-6.6-2.4-9.9-3.5c-1.1-0.4-2.3-0.7-3.5-1.1c-2.1-0.6-4.2-1.3-6.4-1.8
	c-9.5-2.6-19.2-4.5-29.1-5.8c-7.1-0.9-14.3-1.5-21.6-1.7c-2.3-0.1-4.6-0.1-6.8-0.1c-2.4,0-4.7,0-7.1,0.1c-4.4,0.1-8.8,0.4-13.1,0.8
	c-7.6,0.7-15.1,1.8-22.4,3.2c-11.9,2.4-23.5,5.7-34.7,9.9c-0.2,0.1-0.4,0.1-0.6,0.2c-0.1,0-0.1,0.1-0.2,0.1
	c-0.2,0.1-0.3,0.1-0.5,0.2c-12.2,4.7-23.9,10.5-35,17.2c-3.7,2.2-7.3,4.6-10.8,7c-5,3.4-9.8,7-14.4,10.8c-3.5,2.9-6.9,5.8-10.2,8.9
	c-4.6,4.3-9,8.7-13.3,13.3c-3.9,4.3-7.6,8.7-11.2,13.3c-3.9,5-7.6,10.2-11.1,15.5c-2.6,4.1-5.1,8.2-7.5,12.5c-1.4,2.5-2.7,5-4,7.5
	c-3.4,6.7-6.5,13.6-9.2,20.7c-1.9,4.8-3.6,9.8-5.1,14.8c-0.8,2.5-1.5,5-2.1,7.6c-2.4,9.1-4.3,18.4-5.5,28
	c-1.2,9.3-1.8,18.7-1.8,28.3c0,2.3,0,4.6,0.1,6.8c0,0.1,0,0.3,0,0.4h65.2c0-1.8,0-3.6,0.1-5.3c0.4-10.3,1.8-20.4,4.2-30.2
	c0.3-1.4,0.7-2.8,1.1-4.2c2.2-7.8,5-15.5,8.5-22.8c1.3-2.9,2.8-5.7,4.3-8.5c6.1-11.1,13.7-21.4,22.7-30.8c0.7-0.8,1.5-1.5,2.2-2.3
	c0,0,0.1-0.1,0.1-0.1c0.8-0.8,1.6-1.6,2.4-2.3c9.4-8.9,19.7-16.5,30.8-22.6c2.8-1.5,5.7-3,8.6-4.3c7.5-3.5,15.3-6.4,23.3-8.6
	c1.2-0.3,2.4-0.6,3.6-0.9c9.9-2.4,20.1-3.8,30.4-4.2c1.6-0.1,3.3-0.1,4.9-0.1h0.2c1.7,0,3.4,0,5.1,0.1c10.4,0.4,20.6,1.8,30.4,4.2
	c1.1,0.3,2.2,0.5,3.2,0.8c8.1,2.2,16,5.1,23.6,8.7c2.9,1.4,5.8,2.9,8.7,4.4c10.9,6.1,21.2,13.6,30.4,22.4c0.8,0.8,1.7,1.6,2.5,2.5
	c0,0,0,0,0.1,0.1c0.9,0.9,1.7,1.7,2.5,2.6c8.8,9.3,16.3,19.5,22.3,30.4c1.6,2.9,3.1,5.8,4.4,8.7c3.6,7.7,6.5,15.7,8.7,23.9
	c0.3,1,0.5,1.9,0.7,2.9H445l0,0l0,0h47.6C491.3,199.9,489.4,190.1,486.8,180.6z M445.1,138.8L445.1,138.8L445.1,138.8L445.1,138.8z
	 M409.6,103.3L409.6,103.3L409.6,103.3L409.6,103.3L409.6,103.3z M374,67.8L374,67.8L374,67.8L374,67.8z M161,67.8L161,67.8
	L161,67.8L161,67.8z M125.5,103.3L125.5,103.3L125.5,103.3L125.5,103.3z M90,138.8L90,138.8L90,138.8L90,138.8z M90,209.8L90,209.8
	L90,209.8L90,209.8z M125.5,174.3L125.5,174.3L125.5,174.3L125.5,174.3z M161,138.8L161,138.8L161,138.8L161,138.8z M196.5,103.3
	L196.5,103.3L196.5,103.3L196.5,103.3L196.5,103.3z M232,67.8L232,67.8L232,67.8L232,67.8z M303,67.8L303,67.8L303,67.8L303,67.8z
	 M338.5,103.3L338.5,103.3L338.5,103.3L338.5,103.3z M374,138.8L374,138.8L374,138.8L374,138.8z M409.5,174.3L409.5,174.3
	L409.5,174.3L409.5,174.3L409.5,174.3z M480.5,174.3L480.5,174.3L480.5,174.3L480.5,174.3z"/>
</svg>
